<svg width="940.2738037109375px" height="178.439990234375px" xmlns="http://www.w3.org/2000/svg" viewBox="-220.13690185546875 -14.219995117187494 940.2738037109375 178.439990234375" style="background: none;" preserveAspectRatio="xMidYMid"><defs><filter id="editing-lego" x="-100%" y="-100%" width="300%" height="300%"><feFlood flood-color="#000" result="f1"></feFlood><feFlood flood-color="#ffff00" result="f2"></feFlood><feMorphology operator="dilate" radius="3" in="SourceAlpha"></feMorphology><feConvolveMatrix order="5,5" divisor="1" result="cm1" kernelMatrix="0 1 1 1 0  1 0 0 0 1  1 0 0 0 1  1 0 0 0 1  0 1 1 1 0"></feConvolveMatrix><feComposite operator="in" in="f1" in2="cm1" result="c1"></feComposite><feMorphology operator="dilate" radius="3"></feMorphology><feConvolveMatrix order="5,5" divisor="1" result="cm2" kernelMatrix="0 1 1 1 0  1 0 0 0 1  1 0 0 0 1  1 0 0 0 1  0 1 1 1 0"></feConvolveMatrix><feComposite operator="in" in="f2" in2="cm2" result="c2"></feComposite><feMerge><feMergeNode in="c2"></feMergeNode><feMergeNode in="c1"></feMergeNode><feMergeNode in="SourceGraphic"></feMergeNode></feMerge></filter></defs><g filter="url(#editing-lego)"><g transform="translate(-85.94530029594898, 119.0999984741211)"><path d="M40.70-46.20L40.70-46.20L40.70-46.20Q42.20-49.20 42.20-52L42.20-52L42.20-52Q42.20-54.80 41.90-56.35L41.90-56.35L41.90-56.35Q41.60-57.90 40.90-59.10L40.90-59.10L40.90-59.10Q39.40-61.70 36.40-61.70L36.40-61.70L36.40-61.70Q32.70-61.70 29.70-59L29.70-59L29.70-59Q26.50-56.20 26.50-51.80L26.50-51.80L26.50-51.80Q26.50-49 28.45-46.85L28.45-46.85L28.45-46.85Q30.40-44.70 33.40-42.70L33.40-42.70L33.40-42.70Q36.40-40.70 39.80-38.70L39.80-38.70L39.80-38.70Q43.20-36.70 46.20-34.30L46.20-34.30L46.20-34.30Q53.10-28.80 53.10-21.40L53.10-21.40L53.10-21.40Q53.10-16.40 50.45-12.15L50.45-12.15L50.45-12.15Q47.80-7.90 43.40-4.80L43.40-4.80L43.40-4.80Q33.80 2 21.10 2L21.10 2L21.10 2Q10.80 2 5.50-1.35L5.50-1.35L5.50-1.35Q0.20-4.70 0.20-9.80L0.20-9.80L0.20-9.80Q0.20-18.90 7.30-21.20L7.30-21.20L7.30-21.20Q9.30-21.90 12.35-21.90L12.35-21.90L12.35-21.90Q15.40-21.90 18.90-20.60L18.90-20.60L18.90-20.60Q17.30-16.50 17.30-12.80L17.30-12.80L17.30-12.80Q17.30-4.80 23-4.80L23-4.80L23-4.80Q26.70-4.80 29.75-7.50L29.75-7.50L29.75-7.50Q32.80-10.20 32.80-13.25L32.80-13.25L32.80-13.25Q32.80-16.30 30.85-18.50L30.85-18.50L30.85-18.50Q28.90-20.70 26-22.45L26-22.45L26-22.45Q23.10-24.20 19.75-25.90L19.75-25.90L19.75-25.90Q16.40-27.60 13.50-30L13.50-30L13.50-30Q6.70-35.50 6.70-44.30L6.70-44.30L6.70-44.30Q6.70-50 9.50-54.45L9.50-54.45L9.50-54.45Q12.30-58.90 16.80-61.90L16.80-61.90L16.80-61.90Q25.80-68 36.85-68L36.85-68L36.85-68Q47.90-68 53.25-64.70L53.25-64.70L53.25-64.70Q58.60-61.40 58.60-55.80L58.60-55.80L58.60-55.80Q58.60-50.90 54.80-47.80L54.80-47.80L54.80-47.80Q51.50-45.20 47.50-45.20L47.50-45.20L47.50-45.20Q43.50-45.20 40.70-46.20ZM92.80-4.20L92.80-4.20L92.80-4.20Q88 2 76.10 2L76.10 2L76.10 2Q69.90 2 65.40-1.75L65.40-1.75L65.40-1.75Q60.90-5.50 60.90-10.90L60.90-10.90L60.90-10.90Q60.90-13.90 61.20-15.40L61.20-15.40L67.90-51L88.20-53L80.90-14.40L80.90-14.40Q80.50-12.20 80.50-10.90L80.50-10.90L80.50-10.90Q80.50-5.10 84-5.10L84-5.10L84-5.10Q87.90-5.10 90.70-10.40L90.70-10.40L90.70-10.40Q91.60-12.10 92-14.30L92-14.30L99.10-51L118.80-53L111.40-14L111.40-14Q111.10-12.50 111.10-10.90L111.10-10.90L111.10-10.90Q111.10-9.30 112-7.55L112-7.55L112-7.55Q112.90-5.80 115.80-5.40L115.80-5.40L115.80-5.40Q115.20-3 113.10-1.40L113.10-1.40L113.10-1.40Q108.70 2 103.95 2L103.95 2L103.95 2Q99.20 2 96.40 0.30L96.40 0.30L96.40 0.30Q93.60-1.40 92.80-4.20ZM170.80-6.85L170.80-6.85L170.80-6.85Q166.60-2.60 160.85-0.30L160.85-0.30L160.85-0.30Q155.10 2 149.40 2L149.40 2L149.40 2Q143.70 2 141.70 1L141.70 1L138.60 18L118.30 20L132.10-51L148.40-52.70L147.10-45.80L147.10-45.80Q151.30-52.90 160-52.90L160-52.90L160-52.90Q169.80-52.90 175-46.60L175-46.60L175-46.60Q179.60-40.90 179.60-32.20L179.60-32.20L179.60-32.20Q179.60-23.50 177.30-17.30L177.30-17.30L177.30-17.30Q175-11.10 170.80-6.85ZM148.20-34.90L142.90-5.60L142.90-5.60Q145-3.80 147.60-3.80L147.60-3.80L147.60-3.80Q150.20-3.80 151.70-4.80L151.70-4.80L151.70-4.80Q153.20-5.80 154.30-7.80L154.30-7.80L154.30-7.80Q157.30-13.20 159.70-29.60L159.70-29.60L159.70-29.60Q160.40-34.40 160.40-39.10L160.40-39.10L160.40-39.10Q160.40-43.80 159.35-45.30L159.35-45.30L159.35-45.30Q158.30-46.80 156.30-46.80L156.30-46.80L156.30-46.80Q150.20-46.80 148.20-34.90L148.20-34.90ZM226.10-16.90L226.10-16.90L226.10-16.90Q228.60-15.20 228.60-11.45L228.60-11.45L228.60-11.45Q228.60-7.70 226.70-5.30L226.70-5.30L226.70-5.30Q224.80-2.90 221.70-1.30L221.70-1.30L221.70-1.30Q215.30 2 208.40 2L208.40 2L208.40 2Q201.50 2 197.45 0.50L197.45 0.50L197.45 0.50Q193.40-1 190.70-3.80L190.70-3.80L190.70-3.80Q185.40-9.10 185.40-18.80L185.40-18.80L185.40-18.80Q185.40-33.90 193.60-43.10L193.60-43.10L193.60-43.10Q202.40-53 217.70-53L217.70-53L217.70-53Q227.20-53 231.90-49L231.90-49L231.90-49Q235.40-46 235.40-41.10L235.40-41.10L235.40-41.10Q235.40-23.50 205-23.50L205-23.50L205-23.50Q204.60-20.90 204.60-18.70L204.60-18.70L204.60-18.70Q204.60-14.10 206.65-12.35L206.65-12.35L206.65-12.35Q208.70-10.60 212.50-10.60L212.50-10.60L212.50-10.60Q216.30-10.60 220.35-12.35L220.35-12.35L220.35-12.35Q224.40-14.10 226.10-16.90ZM205.70-27.80L205.70-27.80L205.70-27.80Q212.80-27.80 216.90-32.20L216.90-32.20L216.90-32.20Q221-36.40 221-43.10L221-43.10L221-43.10Q221-45.40 220.15-46.65L220.15-46.65L220.15-46.65Q219.30-47.90 217.60-47.90L217.60-47.90L217.60-47.90Q215.90-47.90 214.45-47.25L214.45-47.25L214.45-47.25Q213-46.60 211.50-44.40L211.50-44.40L211.50-44.40Q207.80-39.40 205.70-27.80ZM270.10-28.10L270.10-28.10L270.10-28.10Q273.70-34.50 273.70-41L273.70-41L273.70-41Q273.70-45.30 270.60-45.30L270.60-45.30L270.60-45.30Q268.20-45.30 265.70-41.20L265.70-41.20L265.70-41.20Q263.10-37.10 262.30-31.80L262.30-31.80L257.10 0L236.40 2L246.60-51L263.10-53L261.30-42.90L261.30-42.90Q266.20-53 277.20-53L277.20-53L277.20-53Q283-53 286.15-50L286.15-50L286.15-50Q289.30-47 289.30-40.85L289.30-40.85L289.30-40.85Q289.30-34.70 285.25-30.80L285.25-30.80L285.25-30.80Q281.20-26.90 274.30-26.90L274.30-26.90L274.30-26.90Q271.30-26.90 270.10-28.10ZM298.90-48.70L298.90-48.70L298.90-48.70Q295.50-51.30 295.50-56.85L295.50-56.85L295.50-56.85Q295.50-62.40 299.15-65.30L299.15-65.30L299.15-65.30Q302.80-68.20 309.10-68.20L309.10-68.20L309.10-68.20Q313.10-68.20 322.60-66.80L322.60-66.80L329.40-65.80L329.40-65.80Q332.80-65.40 336.35-65.40L336.35-65.40L336.35-65.40Q339.90-65.40 342.30-66.90L342.30-66.90L342.30-66.90Q345.90-63.70 345.90-59.10L345.90-59.10L345.90-59.10Q345.90-54.50 341.80-51.20L341.80-51.20L341.80-51.20Q337.60-47.70 332.20-47.70L332.20-47.70L332.20-47.70Q329.60-47.70 325.40-48.40L325.40-48.40L325.40-48.40Q320.50-33 320.50-22.30L320.50-22.30L320.50-22.30Q320.50-11.60 325.90-6L325.90-6L325.90-6Q323.40-1.50 319.70 0.25L319.70 0.25L319.70 0.25Q316.00 2 310.45 2L310.45 2L310.45 2Q304.90 2 301.45-1.05L301.45-1.05L301.45-1.05Q298.00-4.10 298.00-10.40L298.00-10.40L298.00-10.40Q298.00-17.70 302.00-29.70L302.00-29.70L302.00-29.70Q306.00-41.60 312.00-50.70L312.00-50.70L312.00-50.70Q309.10-51 306.10-51L306.10-51L306.10-51Q299.90-51 298.90-48.70ZM378.60-16.90L378.60-16.90L378.60-16.90Q381.10-15.20 381.10-11.45L381.10-11.45L381.10-11.45Q381.10-7.70 379.20-5.30L379.20-5.30L379.20-5.30Q377.30-2.90 374.20-1.30L374.20-1.30L374.20-1.30Q367.80 2 360.90 2L360.90 2L360.90 2Q354.00 2 349.95 0.50L349.95 0.50L349.95 0.50Q345.90-1 343.20-3.80L343.20-3.80L343.20-3.80Q337.90-9.10 337.90-18.80L337.90-18.80L337.90-18.80Q337.90-33.90 346.10-43.10L346.10-43.10L346.10-43.10Q354.90-53 370.20-53L370.20-53L370.20-53Q379.70-53 384.40-49L384.40-49L384.40-49Q387.90-46 387.90-41.10L387.90-41.10L387.90-41.10Q387.90-23.50 357.50-23.50L357.50-23.50L357.50-23.50Q357.10-20.90 357.10-18.70L357.10-18.70L357.10-18.70Q357.10-14.10 359.15-12.35L359.15-12.35L359.15-12.35Q361.20-10.60 365.00-10.60L365.00-10.60L365.00-10.60Q368.80-10.60 372.85-12.35L372.85-12.35L372.85-12.35Q376.90-14.10 378.60-16.90ZM358.20-27.80L358.20-27.80L358.20-27.80Q365.30-27.80 369.40-32.20L369.40-32.20L369.40-32.20Q373.50-36.40 373.50-43.10L373.50-43.10L373.50-43.10Q373.50-45.40 372.65-46.65L372.65-46.65L372.65-46.65Q371.80-47.90 370.10-47.90L370.10-47.90L370.10-47.90Q368.40-47.90 366.95-47.25L366.95-47.25L366.95-47.25Q365.50-46.60 364.00-44.40L364.00-44.40L364.00-44.40Q360.30-39.40 358.20-27.80ZM395.65-3L395.65-3L395.65-3Q393.30-5.60 392.25-9.70L392.25-9.70L392.25-9.70Q391.20-13.80 391.20-20.50L391.20-20.50L391.20-20.50Q391.20-27.20 393.50-33.30L393.50-33.30L393.50-33.30Q395.80-39.40 400-43.80L400-43.80L400-43.80Q408.60-53 422.80-53L422.80-53L422.80-53Q427.90-53 431.60-51.30L431.60-51.30L448.70-53L441.30-14L441.30-14Q441-12.80 441-10.60L441-10.60L441-10.60Q441-8.40 442.35-7L442.35-7L442.35-7Q443.70-5.60 445.70-5.40L445.70-5.40L445.70-5.40Q444.70-2 441.05 0L441.05 0L441.05 0Q437.40 2 433.30 2L433.30 2L433.30 2Q429.20 2 426.45 0.45L426.45 0.45L426.45 0.45Q423.70-1.10 422.90-3.70L422.90-3.70L422.90-3.70Q421.30-1.20 417.90 0.40L417.90 0.40L417.90 0.40Q414.50 2 409.95 2L409.95 2L409.95 2Q405.40 2 401.70 0.80L401.70 0.80L401.70 0.80Q398-0.40 395.65-3ZM416.75-43.60L416.75-43.60L416.75-43.60Q415.60-41.80 414.60-38.75L414.60-38.75L414.60-38.75Q413.60-35.70 411.95-27.55L411.95-27.55L411.95-27.55Q410.30-19.40 410.30-13.60L410.30-13.60L410.30-13.60Q410.30-7.80 411.20-6.10L411.20-6.10L411.20-6.10Q412.10-4.40 413.70-4.40L413.70-4.40L413.70-4.40Q416.90-4.40 419.25-7.45L419.25-7.45L419.25-7.45Q421.60-10.50 422.50-15.90L422.50-15.90L427.80-45.20L427.80-45.20Q425.70-47 423.25-47L423.25-47L423.25-47Q420.80-47 419.35-46.20L419.35-46.20L419.35-46.20Q417.90-45.40 416.75-43.60ZM526.10 2L526.10 2L526.10 2Q514 2 514-7.40L514-7.40L514-7.40Q514-11.50 515.75-19.45L515.75-19.45L515.75-19.45Q517.50-27.40 518.10-30.60L518.10-30.60L518.10-30.60Q519.50-37.90 519.50-40.20L519.50-40.20L519.50-40.20Q519.50-45.30 515.70-45.30L515.70-45.30L515.70-45.30Q513.20-45.30 510.80-41.85L510.80-41.85L510.80-41.85Q508.40-38.40 507.30-31.50L507.30-31.50L501.10 0L481.60 2L487.00-25.20L487.00-25.20Q487.90-29.70 488.70-34.80L488.70-34.80L488.70-34.80Q489.50-39.90 489.50-40.70L489.50-40.70L489.50-40.70Q489.50-45.30 486.10-45.30L486.10-45.30L486.10-45.30Q483.80-45.30 481.30-41.90L481.30-41.90L481.30-41.90Q478.80-38.50 477.40-31.50L477.40-31.50L471.30 0L451.60 2L462.10-51L478.40-53L476.70-42.90L476.70-42.90Q479.30-48.30 484.10-50.65L484.10-50.65L484.10-50.65Q488.90-53 496.40-53L496.40-53L496.40-53Q500.70-53 503.50-50.90L503.50-50.90L503.50-50.90Q506.30-48.80 507.20-45.40L507.20-45.40L507.20-45.40Q508.90-48.90 513.25-50.95L513.25-50.95L513.25-50.95Q517.60-53 522.95-53L522.95-53L522.95-53Q528.30-53 530.95-51.85L530.95-51.85L530.95-51.85Q533.60-50.70 535.20-48.80L535.20-48.80L535.20-48.80Q537.90-45.30 537.90-38.90L537.90-38.90L537.90-38.90Q537.90-32.60 535.20-19.50L535.20-19.50L535.20-19.50Q533.80-13.10 533.80-10.75L533.80-10.75L533.80-10.75Q533.80-8.40 535.15-7L535.15-7L535.15-7Q536.50-5.60 538.50-5.40L538.50-5.40L538.50-5.40Q537.50-2 534.05 0L534.05 0L534.05 0Q530.60 2 526.10 2ZM555.80 1.30L558-6L558-6Q561.50-4.10 566.70-4.10L566.70-4.10L566.70-4.10Q571.90-4.10 576.25-7.25L576.25-7.25L576.25-7.25Q580.60-10.40 583.70-16.20L583.70-16.20L583.70-16.20Q590.10-28.50 590.10-48.30L590.10-48.30L590.10-48.30Q590.10-60.90 584.40-60.90L584.40-60.90L584.40-60.90Q581.40-60.90 578.50-57.60L578.50-57.60L578.50-57.60Q575.60-54.30 573.30-49L573.30-49L573.30-49Q568.30-36.90 568.30-22.70L568.30-22.70L568.30-22.70Q568.30-19.80 569.70-18.05L569.70-18.05L569.70-18.05Q571.10-16.30 573.60-16.30L573.60-16.30L573.60-16.30Q573.20-13.20 570.50-11L570.50-11L570.50-11Q567.80-8.80 564.40-8.80L564.40-8.80L564.40-8.80Q556.30-8.80 552.15-13.85L552.15-13.85L552.15-13.85Q548-18.90 548-28.05L548-28.05L548-28.05Q548-37.20 550.80-44.40L550.80-44.40L550.80-44.40Q553.60-51.60 558.50-56.85L558.50-56.85L558.50-56.85Q563.40-62.10 570.15-65.10L570.15-65.10L570.15-65.10Q576.90-68.10 584.90-68.10L584.90-68.10L584.90-68.10Q611.70-68.10 611.70-42L611.70-42L611.70-42Q611.70-23.20 602.70-11.70L602.70-11.70L602.70-11.70Q593.70-0.10 578.10 1.30L578.10 1.30L578.10 1.30Q587.30 3.30 596.60 3.30L596.60 3.30L596.60 3.30Q603.90 3.30 609.30 0.20L609.30 0.20L609.30 0.20Q610.80-0.70 611.40-1.70L611.40-1.70L611.40-1.70Q614.40 1 614.40 6.35L614.40 6.35L614.40 6.35Q614.40 11.70 609.65 14.80L609.65 14.80L609.65 14.80Q604.90 17.90 595.65 17.90L595.65 17.90L595.65 17.90Q586.40 17.90 575.70 13.60L575.70 13.60L575.70 13.60Q565 9.30 555.80 1.30L555.80 1.30ZM659.80 2L659.80 2L659.80 2Q647.00 2 645.80-16.20L645.80-16.20L628.60-16.20L628.60-16.20Q626.60-11.60 625.20-7.60L625.20-7.60L622.60 0L608.60 0L640.10-66L661.60-66L665.80-17.40L665.80-17.40Q666.80-6.90 670.80-3.80L670.80-3.80L670.80-3.80Q667.90 2 659.80 2ZM637.20-36.20L631.70-23.50L645.50-23.50L644.30-49.20L644.30-51.90L637.20-36.20Z" fill="#ebe9e9"></path></g></g><style>text {
  font-size: 64px;
  font-family: Arial Black;
  dominant-baseline: central;
  text-anchor: middle;
}</style></svg>